<svg class="svg-element svg-element--inline" width="24" height="24" fill="#000000" viewBox="0 0 24 24" xmlns="http://www.w3.org/2000/svg">
<path
	d="M20.8966667,2 L3.10333333,2 C2.49416667,2 2,2.49416667 2,3.10333333 L2,20.8966667 C2,21.5066667 2.49416667,22 3.10333333,22 L12.6816667,22 L12.6816667,14.255 L10.0741667,14.255 L10.0741667,11.2375 L12.6816667,11.2375 L12.6816667,9.00833333 C12.6816667,6.42583333 14.26,5.02083333 16.5641667,5.02083333 C17.6683333,5.02083333 18.6175,5.10166667 18.8941667,5.13833333 L18.8941667,7.83833333 L17.2933333,7.83833333 C16.0433333,7.83833333 15.8,8.43916667 15.8,9.31416667 L15.8,11.24 L18.7866667,11.24 L18.3991667,14.265 L15.8,14.265 L15.8,22 L20.8958333,22 C21.5066667,22 22,21.5066667 22,20.8966667 L22,3.10333333 C22,2.49416667 21.5066667,2 20.8966667,2"></path>
</svg>