<svg class="svg-element svg-element--inline" width="24" height="24" fill="#000000" viewBox="0 0 24 24" xmlns="http://www.w3.org/2000/svg">
<path
	d="M7.99875,10.9968341 L7.99875,13.3975841 L11.9725,13.3975841 C11.8139167,14.4288341 10.7716667,16.4180008 8.00241667,16.4180008 C5.61541667,16.4180008 3.66566667,14.4380008 3.66566667,11.9969175 C3.66566667,9.5567508 5.61083333,7.5767508 7.99966667,7.5767508 C9.36091667,7.5767508 10.2720833,8.1570008 10.7909167,8.65658414 L12.6911667,6.8287508 C11.472,5.6875008 9.88983333,5.0000008 8.00241667,5.0000008 C4.12766667,4.99816747 1,8.13316747 1,11.9969175 C1,15.8606675 4.1295,18.9956675 7.99875,18.9956675 C12.04125,18.9956675 14.71975,16.1558341 14.71975,12.1564175 C14.71975,11.6971675 14.67025,11.3451675 14.60975,10.9968341 L7.99875,10.9968341 L7.99875,10.9968341 Z M23,10.9968341 L20.9989167,10.9968341 L20.9989167,8.9957508 L18.9978333,8.9957508 L18.9978333,10.9968341 L16.9976667,10.9968341 L16.9976667,12.9960841 L18.9996667,12.9960841 L18.9996667,14.9980841 L21.00625,14.9980841 L21.00625,12.9960841 L23,12.9960841 L23,10.9968341 Z"></path>
</svg>