<svg class="svg-element svg-element--inline" width="24" height="24" fill="#000000" viewBox="0 0 24 24" xmlns="http://www.w3.org/2000/svg">
<path d="M16.17,15.75V8.25a.4.4,0,0,0-.42-.42H8.25a.4.4,0,0,0-.42.42v7.5a.4.4,0,0,0,.42.42h7.5a.4.4,0,0,0,.42-.42ZM22,12a9.78,9.78,0,0,1-1.34,5A10,10,0,0,1,17,20.66,9.78,9.78,0,0,1,12,22a9.78,9.78,0,0,1-5-1.34A10,10,0,0,1,3.34,17,9.78,9.78,0,0,1,2,12,9.78,9.78,0,0,1,3.34,7,10,10,0,0,1,7,3.34,9.78,9.78,0,0,1,12,2a9.78,9.78,0,0,1,5,1.34A10,10,0,0,1,20.66,7,9.78,9.78,0,0,1,22,12Z" /></svg>