<svg class="svg-element svg-element--inline" width="24" height="24" fill="#000000" viewBox="0 0 24 24" xmlns="http://www.w3.org/2000/svg">
<path
	d="M21.9588767,5.02445276 C21.184534,5.36345927 20.3576934,5.59440201 19.4871047,5.69985134 C20.3743177,5.16737581 21.0567893,4.32813862 21.3796508,3.32680576 C20.5475605,3.81047829 19.6253489,4.16255703 18.6436398,4.35864049 C17.8596725,3.52288922 16.7423441,3 15.5016458,3 C13.1243698,3 11.1968251,4.91987492 11.1968251,7.28507715 C11.1968251,7.62495514 11.2361985,7.95176091 11.3079455,8.26462296 C7.72934461,8.09642692 4.55760177,6.38483621 2.43494021,3.79740606 C2.06133078,4.42661609 1.85221449,5.15778951 1.85221449,5.95432409 C1.85221449,7.44455836 2.61343277,8.75439586 3.76663472,9.52391449 C3.06053914,9.50125596 2.39644181,9.30778695 1.81721595,8.98708156 L1.81721595,9.04024196 C1.81721595,11.1187266 3.29852923,12.8521044 5.26982209,13.2468857 C4.90846215,13.3436202 4.52697804,13.3959092 4.13586934,13.3959092 C3.86113079,13.3959092 3.59776676,13.3697647 3.33440273,13.3209617 C3.88650473,15.0229661 5.4736886,16.2639565 7.36273489,16.2988158 C5.89279613,17.4483006 4.02999875,18.1332855 2.02370735,18.1332855 C1.68247156,18.1332855 1.34211075,18.1132414 1,18.0748962 C2.9152952,19.2897421 5.17182617,20 7.6120995,20 C15.5340194,20 19.8607141,13.4673707 19.8607141,7.8114523 C19.8607141,7.62931255 19.8607141,7.44542985 19.8475897,7.26241862 C20.6884296,6.6619675 21.4225241,5.90290665 22,5.0418824 L21.9588767,5.02445276 Z"></path>
</svg>