<svg class="svg-element svg-element--inline" width="24" height="24" fill="#000000" viewBox="0 0 24 24" xmlns="http://www.w3.org/2000/svg">
<path d="M0 0h24v24H0" fill="none"/><path d="M15 14.8c-1.846 0-2.81-1.027-3.584-1.853C10.71 12.194 10.153 11.6 9 11.6c-1.262 0-1.87.32-2.577.69-.81.427-1.727.91-3.51.91H2.2c-.11 0-.2-.09-.2-.2v-1.2c0-.11.09-.2.2-.2h.713c1.387 0 2.027-.336 2.767-.725C6.46 10.465 7.342 10 9 10c1.847 0 2.81 1.027 3.584 1.853.706.752 1.263 1.347 2.416 1.347 1.335 0 1.942-.336 2.645-.726.74-.41 1.577-.874 3.136-.874h1.02c.11 0 .2.09.2.2V13c0 .11-.09.2-.2.2h-1.02c-1.143 0-1.68.297-2.36.674-.782.434-1.67.926-3.42.926"/>
</svg>