<svg class="svg-element svg-element--inline" width="24" height="24" fill="#000000" viewBox="0 0 24 24" xmlns="http://www.w3.org/2000/svg">
<path d="M16.933 12.12c-.134 2.08-.398 6.462-2.888 6.462-2.584 0-2.552-3.534-2.875-5.99-.44-3.347-.32-5.477-1.23-5.414-.89-.063-.806 3.25-1 4.613-.628 4.396-.84 6.793-3.12 6.793-2.633 0-2.7-2.43-2.754-4.38-.014-.51-.034-1.224-.124-1.61h-.658c-.157 0-.284-.09-.284-.2v-1.2c0-.11.127-.2.284-.2H3.46c1.367.015 1.162 1.574 1.207 3.21.02.675 0 2.576.877 2.643 1.01.207 1.533-3.437 1.777-5.143C7.886 7.763 8.09 5 9.974 5c1.882 0 2.175 2.645 2.56 6.477.164 1.618.3 5.368 1.508 5.3 1.415.068 1.327-3.9 1.5-5.3C15.764 9.697 15.79 5 17.707 5s2.072 2.244 2.206 4.137c.046.636-.06 1.08.308 1.855h1.498c.157 0 .284.09.284.2v1.2c0 .11-.127.2-.284.2H20.61c-1.927 0-1.92-1.4-1.992-2.375-.105-1.415.07-3.04-.71-3.04-.778 0-.877 3.43-.975 4.943z"/><path d="M0 0h24v24H0" fill="none"/>
</svg>