<svg class="svg-element svg-element--inline" width="24" height="24" fill="#000000" viewBox="0 0 24 24" xmlns="http://www.w3.org/2000/svg">
<path d="M11.794 12.232c-.53-2.502-1.632-3.737-2.82-3.737-1.388 0-2.49.463-2.907 1.63-.39 1.09-1.223 2.585-3.074 2.585h-.846c-.08-.002-.147-.068-.147-.15v-1.262c0-.08.066-.147.147-.147h.846c.975 0 1.26-.236 1.682-1.42C5.068 8.63 6.67 7 8.975 7c2.274 0 3.552 2.13 4.314 5.12.462 1.822 1.74 3.418 2.694 3.418 1.01 0 1.682-.39 2.075-1.58.353-1.075 1.187-2.808 2.93-2.808h.864c.08 0 .147.066.147.147v1.263c0 .082-.065.148-.146.148h-.863c-.81 0-1.22.503-1.63 1.736-.37 1.13-1.466 2.675-3.376 2.675-1.95 0-3.684-2.49-4.19-4.89v.002z"/><path d="M0 0h24v24H0" fill="none"/>
</svg>