<svg width='200' height='200' fill="#000000" xmlns="http://www.w3.org/2000/svg" xmlns:xlink="http://www.w3.org/1999/xlink" version="1.1" x="0px" y="0px" viewBox="0 0 100 100" enable-background="new 0 0 100 100" xml:space="preserve" class="svg-element svg-element--inline"><path
	d="M61.834,77.235c0,8.337,6.782,15.12,15.12,15.12c8.337,0,15.125-6.782,15.125-15.12c0-8.337-6.789-15.125-15.125-15.125  C68.617,62.109,61.834,68.898,61.834,77.235z M84.934,77.235c0,4.397-3.58,7.977-7.98,7.977c-4.396,0-7.976-3.58-7.976-7.977  c0-4.403,3.58-7.983,7.976-7.983C81.354,69.252,84.934,72.832,84.934,77.235z"/><polygon points="7.349,48.645 12.904,54.2 20.686,46.418 28.464,54.2 34.019,48.645 26.237,40.863 34.025,33.078 28.471,27.523   20.686,35.312 12.897,27.523 7.342,33.078 15.131,40.863 "/><path d="M10.111,80.884l0.88,7.09c28.257-3.497,50.522-25.697,54.764-53.48l11.281,0.069L62.734,9.453L48.138,34.388l10.408,0.062  C54.381,58.619,34.838,77.821,10.111,80.884z"/></svg>
</svg>